<svg width="736" height="146" viewBox="0 0 736 146" fill="none" xmlns="http://www.w3.org/2000/svg">
<g clip-path="url(#clip0)">
<path d="M17.2274 26.5707C22.3957 26.5707 26.5636 28.019 29.6756 30.9156C32.7877 33.8123 34.3437 37.6001 34.3437 42.2792C34.3437 47.0698 32.7877 50.9691 29.6201 53.9214C26.4524 56.9294 22.3401 58.3777 17.2274 58.3777C12.1703 58.3777 8.00242 56.8737 4.83479 53.8657C1.6116 50.8577 0 47.0141 0 42.2792C0 37.6001 1.6116 33.8123 4.77922 30.9156C7.94684 28.019 12.0592 26.5707 17.2274 26.5707ZM17.2274 87.678C22.3957 87.678 26.6191 89.1263 29.7868 92.0229C32.9544 94.9195 34.566 98.7073 34.566 103.386C34.566 108.121 32.9544 111.965 29.7868 114.973C26.6191 117.981 22.4512 119.429 17.2274 119.429C12.1703 119.429 8.00242 117.925 4.83479 114.917C1.6116 111.909 0 108.066 0 103.386C0 98.763 1.6116 94.9752 4.77922 92.0786C8.00242 89.1263 12.1148 87.678 17.2274 87.678Z" fill="#C1272D"/>
<path d="M88.4711 72.9164C92.6946 75.7016 95.64 78.9324 97.3072 82.6089C98.9188 86.2854 99.7523 92.6356 99.7523 101.66V114.082C99.7523 119.763 100.197 123.384 101.142 124.832C102.086 126.281 103.809 127.283 106.421 127.785C107.032 127.952 107.977 128.119 109.2 128.286C115.59 129.233 118.758 132.297 118.758 137.477C118.758 140.04 117.813 142.045 115.979 143.605C114.146 145.164 111.645 145.944 108.588 145.944C104.643 145.944 100.864 145.276 97.1404 143.995C93.4727 142.713 90.4162 140.931 87.971 138.703C85.3035 136.307 83.4696 133.188 82.3582 129.4C81.2467 125.612 80.691 119.039 80.691 109.848V99.8214C80.691 89.6833 76.0229 83.8344 66.6868 82.3304C66.2978 82.219 66.0199 82.1633 65.8532 82.1633C63.1302 81.7176 61.1851 80.7707 59.8514 79.2667C58.5732 77.7627 57.9064 75.6459 57.9064 72.8607C57.9064 70.4097 58.4621 68.4601 59.5735 67.0675C60.685 65.6192 62.4077 64.6165 64.8529 64.0038C65.9088 63.6696 67.4648 63.2796 69.4654 62.8897C76.9121 61.4971 80.691 55.9267 80.691 46.2342V36.2075C80.691 27.6291 81.1356 21.5574 81.9692 18.1038C82.8028 14.6501 84.2476 11.6421 86.2483 9.02401C88.5823 6.18311 91.7499 3.89925 95.7511 2.33954C99.6968 0.72413 104.087 -0.0557251 108.866 -0.0557251C111.867 -0.0557251 114.257 0.72413 116.035 2.28384C117.813 3.84355 118.758 5.84889 118.758 8.41127C118.758 13.7031 115.368 16.8783 108.533 17.9366C107.921 17.9923 107.477 18.048 107.199 18.1038C104.365 18.5494 102.42 19.5521 101.364 21.1675C100.308 22.7829 99.7523 26.4036 99.7523 32.0854V44.4517C99.7523 52.9187 98.9187 59.1018 97.2516 63.0568C95.4733 67.0675 92.5835 70.2983 88.4711 72.9164Z" fill="#C1272D"/>
<path d="M146.489 22.7829C146.489 21.8916 146.767 21.1675 147.378 20.499C147.989 19.8863 148.712 19.5521 149.545 19.5521C151.49 19.5521 153.88 20.6104 156.714 22.7829C159.548 24.9553 162.549 28.0748 165.772 32.0854C170.718 38.2686 174.386 44.7859 176.887 51.6375C179.387 58.4891 180.61 65.6192 180.61 73.0278C180.61 81.1606 179.11 88.9592 176.109 96.4792C173.108 103.999 168.606 111.074 162.716 117.647C160.159 120.432 157.77 122.604 155.436 124.108C153.102 125.612 151.101 126.392 149.434 126.392C148.656 126.392 147.989 126.114 147.378 125.501C146.767 124.888 146.489 124.164 146.489 123.273C146.489 122.326 147.545 120.098 149.656 116.588C151.212 113.97 152.435 111.909 153.324 110.294C156.825 103.721 159.381 97.4819 160.937 91.5215C162.494 85.6169 163.272 79.4338 163.272 73.0278C163.272 67.2903 162.66 61.7199 161.382 56.3167C160.104 50.9134 158.214 45.5658 155.603 40.1625C154.158 37.2659 152.268 33.868 149.99 29.9687C147.6 26.1808 146.489 23.7299 146.489 22.7829Z" fill="#C1272D"/>
<path d="M279.195 62.3327H269.248L267.859 53.42C266.525 52.0831 264.913 51.0805 262.913 50.3006C260.912 49.5208 258.578 49.1308 255.855 49.1308C250.075 49.1308 245.574 51.2476 242.462 55.4811C239.35 59.7146 237.794 65.2293 237.794 71.9694V74.309C237.794 81.1049 239.35 86.6196 242.462 90.8531C245.574 95.0866 249.964 97.2033 255.633 97.2033C258.245 97.2033 260.634 96.8134 262.857 96.0335C265.024 95.2537 266.747 94.251 267.914 92.9141L269.304 84.0015H279.251V97.2033C276.584 100.323 273.138 102.829 268.97 104.668C264.802 106.506 260.134 107.453 254.966 107.453C246.019 107.453 238.683 104.333 233.015 98.1503C227.291 91.9672 224.457 84.0015 224.457 74.2533V72.0251C224.457 62.3327 227.291 54.367 232.959 48.1282C238.628 41.8893 245.963 38.7699 254.966 38.7699C260.134 38.7699 264.802 39.7169 268.915 41.6108C273.082 43.5047 276.472 45.9557 279.195 49.0751V62.3327Z" fill="#333333"/>
<path d="M287.92 81.3277C287.92 73.9191 289.976 67.8474 294.144 63.1125C298.257 58.3777 303.981 56.0381 311.261 56.0381C318.596 56.0381 324.32 58.3777 328.433 63.1125C332.545 67.8474 334.657 73.9191 334.657 81.3277V82.2747C334.657 89.739 332.6 95.8107 328.433 100.49C324.32 105.169 318.596 107.509 311.316 107.509C303.981 107.509 298.201 105.169 294.089 100.49C289.976 95.8107 287.865 89.739 287.865 82.2747V81.3277H287.92ZM301.313 82.3304C301.313 86.8424 302.091 90.4632 303.703 93.2484C305.314 95.9779 307.871 97.3705 311.372 97.3705C314.817 97.3705 317.318 95.9779 318.93 93.2484C320.541 90.5189 321.319 86.8981 321.319 82.3861V81.3277C321.319 76.9271 320.486 73.3064 318.874 70.5212C317.262 67.736 314.706 66.3434 311.205 66.3434C307.704 66.3434 305.203 67.736 303.592 70.5212C301.98 73.3064 301.202 76.8714 301.202 81.3277V82.3304H301.313Z" fill="#333333"/>
<path d="M374.947 100.601C373.391 102.885 371.557 104.612 369.445 105.837C367.333 107.007 364.888 107.62 362.165 107.62C356.052 107.62 351.328 105.392 347.938 100.935C344.548 96.4792 342.881 90.5745 342.881 83.2216V82.2747C342.881 74.4204 344.548 68.1259 347.938 63.3353C351.328 58.5448 356.107 56.1495 362.22 56.1495C364.666 56.1495 366.944 56.7065 368.889 57.7649C370.89 58.8233 372.612 60.383 374.113 62.3883V44.5631L367 43.1705V35.0377H374.113H387.45V97.2033L393.841 98.5959V106.617H375.836L374.947 100.601ZM356.274 83.1659C356.274 87.5108 356.997 90.9088 358.442 93.4154C359.886 95.9221 362.276 97.1476 365.555 97.1476C367.5 97.1476 369.223 96.7577 370.612 95.9778C372.057 95.198 373.224 94.0282 374.113 92.5242V71.4681C373.224 69.8527 372.057 68.6272 370.612 67.7916C369.167 66.9004 367.5 66.5104 365.61 66.5104C362.332 66.5104 359.942 67.9587 358.497 70.8553C356.997 73.7519 356.274 77.5398 356.274 82.219V83.1659Z" fill="#333333"/>
<path d="M431.964 106.617C431.575 105.782 431.297 104.946 431.019 104.055C430.741 103.164 430.519 102.328 430.352 101.437C428.741 103.275 426.851 104.779 424.573 105.893C422.294 107.007 419.682 107.564 416.792 107.564C411.958 107.564 408.068 106.227 405.233 103.609C402.399 100.991 400.954 97.3704 400.954 92.8027C400.954 88.1793 402.788 84.5585 406.512 81.9961C410.235 79.4338 415.681 78.2083 422.905 78.2083H429.741V73.362C429.741 70.9668 429.074 69.1285 427.685 67.7916C426.295 66.4547 424.295 65.842 421.572 65.842C420.071 65.842 418.682 66.0091 417.515 66.3433C416.348 66.6776 415.348 67.1232 414.625 67.6245L413.736 72.9721H403.677L403.733 61.9427C406.178 60.2716 408.957 58.879 412.124 57.7649C415.292 56.6509 418.738 56.0938 422.461 56.0938C428.574 56.0938 433.575 57.5978 437.41 60.6058C441.244 63.6138 443.134 67.903 443.134 73.4734V93.9725C443.134 94.7523 443.134 95.4765 443.134 96.1449C443.134 96.8134 443.189 97.4818 443.301 98.0946L447.357 98.6516V106.673H431.964V106.617ZM420.405 97.7046C422.405 97.7046 424.239 97.259 425.906 96.4235C427.574 95.5322 428.852 94.4738 429.741 93.1369V85.5612H422.905C420.071 85.5612 417.904 86.2296 416.459 87.5665C415.014 88.9034 414.236 90.5188 414.236 92.3571C414.236 94.0282 414.792 95.3651 415.848 96.312C416.959 97.2033 418.46 97.7046 420.405 97.7046Z" fill="#333333"/>
<path d="M453.748 98.5959L460.194 97.2033V66.399L453.081 65.0065V56.9294H473.587V97.1476L479.978 98.5402V106.562H453.748V98.5959ZM473.587 45.1202H460.25V35.0934H473.587V45.1202Z" fill="#333333"/>
<path d="M527.048 74.0304H518.101L516.656 67.8473C515.767 67.1231 514.6 66.5104 513.21 66.0091C511.821 65.5077 510.265 65.2849 508.598 65.2849C506.264 65.2849 504.374 65.7863 503.041 66.8446C501.651 67.903 500.985 69.2399 500.985 70.7996C500.985 72.3036 501.651 73.5291 502.93 74.5318C504.263 75.5344 506.875 76.4257 510.821 77.1499C516.934 78.3753 521.491 80.1579 524.436 82.5531C527.381 84.9484 528.882 88.1792 528.882 92.357C528.882 96.8133 526.992 100.49 523.158 103.275C519.323 106.116 514.266 107.508 508.042 107.508C504.208 107.508 500.707 106.951 497.539 105.837C494.371 104.723 491.537 103.108 489.037 101.047L488.925 89.906H498.262L500.095 96.3677C500.873 97.0362 501.985 97.5375 503.319 97.8717C504.708 98.2059 506.153 98.3731 507.598 98.3731C510.321 98.3731 512.377 97.8717 513.822 96.9247C515.267 95.9221 515.934 94.6409 515.934 92.9141C515.934 91.4658 515.211 90.1846 513.766 89.1262C512.321 88.0678 509.709 87.1209 505.875 86.2853C500.04 85.1155 495.65 83.333 492.649 80.9934C489.648 78.6539 488.203 75.4787 488.203 71.4123C488.203 67.2346 489.926 63.6695 493.316 60.6615C496.705 57.6535 501.596 56.1495 507.931 56.1495C511.766 56.1495 515.433 56.6508 518.823 57.7092C522.269 58.7676 524.936 60.1045 526.881 61.7199L527.048 74.0304Z" fill="#333333"/>
<path d="M577.508 74.0304H568.561L567.116 67.8473C566.227 67.1231 565.06 66.5104 563.67 66.0091C562.281 65.5077 560.725 65.2849 559.058 65.2849C556.724 65.2849 554.834 65.7863 553.501 66.8446C552.111 67.903 551.444 69.2399 551.444 70.7996C551.444 72.3036 552.111 73.5291 553.389 74.5318C554.723 75.5344 557.335 76.4257 561.281 77.1499C567.394 78.3753 571.951 80.1579 574.896 82.5531C577.841 84.9484 579.342 88.1792 579.342 92.357C579.342 96.8133 577.452 100.49 573.618 103.275C569.783 106.116 564.726 107.508 558.502 107.508C554.668 107.508 551.166 106.951 547.999 105.837C544.831 104.723 541.997 103.108 539.496 101.047L539.385 89.906H548.721L550.555 96.3677C551.333 97.0362 552.445 97.5375 553.778 97.8717C555.168 98.2059 556.613 98.3731 558.057 98.3731C560.781 98.3731 562.837 97.8717 564.282 96.9247C565.726 95.9221 566.393 94.6409 566.393 92.9141C566.393 91.4658 565.671 90.1846 564.226 89.1262C562.781 88.0678 560.169 87.1209 556.335 86.2853C550.5 85.1155 546.109 83.333 543.109 80.9934C540.108 78.6539 538.663 75.4787 538.663 71.4123C538.663 67.2346 540.385 63.6695 543.775 60.6615C547.165 57.6535 552.056 56.1495 558.391 56.1495C562.225 56.1495 565.893 56.6508 569.283 57.7092C572.729 58.7676 575.396 60.1045 577.341 61.7199L577.508 74.0304Z" fill="#333333"/>
<path d="M611.296 107.62C604.182 107.62 598.458 105.336 594.179 100.713C589.9 96.145 587.788 90.2961 587.788 83.2217V81.3834C587.788 74.0305 589.789 67.9588 593.846 63.1683C597.903 58.3777 603.293 56.0381 610.129 56.0381C616.797 56.0381 622.021 58.0435 625.689 62.1099C629.357 66.1206 631.246 71.5795 631.246 78.4868V85.784H601.682L601.57 86.0626C601.793 89.3491 602.904 92.0229 604.849 94.1396C606.794 96.2564 609.406 97.3148 612.74 97.3148C615.686 97.3148 618.131 97.0362 620.132 96.4235C622.077 95.8108 624.244 94.8638 626.522 93.5826L630.135 101.827C628.078 103.442 625.467 104.835 622.188 105.893C618.909 107.063 615.297 107.62 611.296 107.62ZM610.129 66.3991C607.683 66.3991 605.683 67.346 604.293 69.24C602.849 71.1339 601.959 73.6406 601.626 76.7043L601.737 76.9271H618.131V75.7573C618.131 72.9164 617.464 70.6326 616.13 68.9615C614.797 67.2346 612.796 66.3991 610.129 66.3991Z" fill="#333333"/>
<path d="M674.426 100.323C672.814 102.662 670.869 104.445 668.535 105.67C666.201 106.951 663.534 107.564 660.533 107.564C655.309 107.564 651.252 105.893 648.251 102.551C645.306 99.2086 643.805 93.9724 643.805 86.9537V66.4547L638.359 65.0621V56.985H643.805H657.143V87.0094C657.143 90.6302 657.754 93.1926 658.977 94.808C660.199 96.3677 661.978 97.1476 664.367 97.1476C666.479 97.1476 668.313 96.8133 669.813 96.0892C671.369 95.4207 672.592 94.4181 673.592 93.1369V66.399L667.757 65.0064V56.9293H673.592H686.93V97.1476L692.931 98.5402V106.562H675.204L674.426 100.323Z" fill="#333333"/>
<path d="M701.545 98.5959L707.936 97.2033V66.3991L700.823 65.0065V56.9294H720.384L720.995 64.1709C722.162 61.6085 723.663 59.6032 725.497 58.1549C727.331 56.7066 729.442 55.9824 731.832 55.9824C732.555 55.9824 733.277 56.0381 734.055 56.1495C734.833 56.2609 735.5 56.3723 736 56.5395L734.555 68.7386L729.053 68.6272C727.108 68.6272 725.497 69.0171 724.219 69.797C722.94 70.5769 721.94 71.6352 721.273 73.0278V97.1476L727.664 98.5402V106.562H701.49V98.5959H701.545Z" fill="#333333"/>
</g>
<defs>
<clipPath id="clip0">
<rect width="736" height="146" fill="white"/>
</clipPath>
</defs>
</svg>
