<?xml version="1.0" encoding="utf-8"?>
<!-- Generator: Adobe Illustrator 23.1.0, SVG Export Plug-In . SVG Version: 6.00 Build 0)  -->
<svg version="1.1" id="Layer_1" xmlns="http://www.w3.org/2000/svg" xmlns:xlink="http://www.w3.org/1999/xlink" x="0px" y="0px"
	 viewBox="0 0 105.8 44" style="enable-background:new 0 0 105.8 44;" xml:space="preserve">
<style type="text/css">
	.st0{fill:#005A9C;}
	.st1{fill:#D73648;}
</style>
<path class="st0" d="M14.7,18.6c-0.1,2.8-3.1,4.8-7.5,4.8c-3,0-5.7-1.2-6.9-2.9l2.7-2.2c0.8,1.2,2.4,2,4.2,2c0.1,0,2.2,0,3.1-0.8
	c0.2-0.2,0.4-0.5,0.4-0.8c0-1.3-2.6-1.8-4.2-2.1l-1-0.2l-0.3-0.1C3.9,15.8,1,15,0.9,11.5c0-0.7,0.3-1.8,1.2-2.8
	c1.2-1.2,3.1-1.8,5.6-1.8l-0.1,0c2.7,0,5.2,1.1,6.5,2.7l-2.5,2.5c-0.6-1.4-2.1-2.2-4-2.2c-1.1,0-2.4,0.3-2.7,1
	c-0.1,0.3-0.1,0.6,0,0.9c0.5,0.9,2.5,1.3,2.6,1.3C13.5,14.1,14.7,16,14.7,18.6z"/>
<rect x="21.5" y="6.9" class="st0" width="3.6" height="16.1"/>
<path class="st0" d="M41,6.8c-1.4,0-3.1,0.7-3.7,2v-2h-3.6V23h3.6v-8.1c0-2.4,0.7-4.4,3.3-4.4c1.5,0,2.9,0.9,2.9,2.9v9.6h3.7V12.4
	C47.2,8.7,44.6,6.8,41,6.8z"/>
<path class="st0" d="M98.9,6.7c-1.4,0-3.2,0.8-3.8,2.1V0.6h-3.6V23h3.6v-8.1c0-2.4,0.7-4.4,3.3-4.4c1.5,0,2.9,0.9,2.9,2.9v9.6h3.7
	V12.4C105,8.7,102.5,6.7,98.9,6.7z"/>
<path class="st0" d="M66.3,17.6c-0.5,0.8-1.2,1.3-2,1.7c-0.8,0.4-1.6,0.5-2.6,0.5c-1.1,0-2.1-0.4-2.9-1.1c-0.8-0.7-1.2-1.7-1.2-2.8
	h11.7c0-2.9-0.6-4.8-1.8-6.5c-1.2-1.7-3.2-2.7-5.8-2.7c-2.5,0-4.5,0.8-5.9,2.3c-1.5,1.6-2.2,3.6-2.2,6c0,2.4,0.7,4.4,2.2,6
	c1.5,1.6,3.4,2.3,5.9,2.3c2,0,3.6-0.4,4.8-1.1c1.2-0.7,2.2-1.7,3-2.8L66.3,17.6z M61.4,9.9c1.9,0,3.4,1.3,3.8,3.1h-7.6
	C58,11.3,59.6,9.9,61.4,9.9z"/>
<g>
	<path class="st0" d="M74.9,7.1h2.3V1.6h3.6v5.5h3.6v2.7h-3.6V18c0,1.5,0.1,2.2,1.7,2.2c0.5,0,1.2-0.1,1.9-0.2v2.8
		c-1.2,0.2-1.9,0.3-2.7,0.3c-3.7,0-4.4-1.4-4.5-4.2V9.8h-2.3V7.1z"/>
</g>
<rect x="28" y="27.2" class="st1" width="2.7" height="2.7"/>
<rect x="28" y="34" class="st0" width="2.7" height="2.7"/>
<rect x="28" y="40.8" class="st1" width="2.7" height="2.7"/>
</svg>
